<svg width="500" height="500" viewBox="0 0 500 500" fill="none" xmlns="http://www.w3.org/2000/svg">
<g clip-path="url(#clip0_279_2)">
<path d="M355.206 23.1393V103.2L404.769 53.6365C389.239 41.3651 372.59 31.1994 355.206 23.1393Z" fill="white"/>
<path d="M297.719 4.57075V160.686L238.93 219.475L238.93 0.243686C258.591 -0.622358 278.334 0.819995 297.719 4.57075Z" fill="white"/>
<path d="M181.443 276.962L181.443 9.53659C160.733 15.4208 140.633 24.028 121.709 35.3581L121.709 336.696L181.443 276.962Z" fill="white"/>
<path d="M64.2225 82.6986L64.2225 394.183L53.6365 404.769C-21.2487 310.002 -17.72 173.536 64.2225 82.6986Z" fill="white"/>
<path d="M279.689 260.015L338.478 201.226H495.223C499.058 220.603 500.584 240.346 499.801 260.015L279.689 260.015Z" fill="white"/>
<path d="M395.964 143.739H476.369C468.204 126.343 457.923 109.693 445.526 94.1774L395.964 143.739Z" fill="white"/>
<path d="M222.202 317.502L162.468 377.236H465.27C476.481 358.298 484.978 338.199 490.761 317.502L222.202 317.502Z" fill="white"/>
<path d="M94.1775 445.526L104.981 434.722H418.464C327.295 517.995 189.388 521.596 94.1775 445.526Z" fill="white"/>
</g>
<defs>
<clipPath id="clip0_279_2">
<rect width="500" height="500" fill="white"/>
</clipPath>
</defs>
</svg>
