<svg width="1200" height="153" viewBox="0 0 1200 153" fill="none" xmlns="http://www.w3.org/2000/svg">
<g clip-path="url(#clip0_259_102)">
<path d="M108.917 7.97652C107.96 7.49557 106.851 8.20411 106.851 9.27693V27.5733C106.851 28.8816 108.429 29.5369 109.352 28.6117L120.596 17.3407C121.216 16.7193 121.157 15.6939 120.457 15.1643C116.789 12.3868 112.924 9.99091 108.917 7.97652Z" fill="white"/>
<path d="M88.3697 1.15764C89.0608 1.28018 89.5582 1.8864 89.5582 2.58988V47.8448C89.5582 48.2342 89.4039 48.6078 89.1291 48.8832L74.3746 63.6733C73.4517 64.5984 71.8736 63.9432 71.8736 62.6348V1.47875C71.8736 0.692833 72.4909 0.0446816 73.2747 0.0246482C78.3233 -0.104397 83.3825 0.273266 88.3697 1.15764Z" fill="white"/>
<path d="M54.1517 83.9448C54.4265 83.6694 54.5808 83.2958 54.5808 82.9064L54.5808 4.81954C54.5808 3.84478 53.6507 3.14046 52.7225 3.43101C47.4069 5.09489 42.2391 7.36395 37.3267 10.2382C36.8819 10.4985 36.6119 10.9779 36.6119 11.4942L36.6119 97.9815C36.6119 99.2898 38.1899 99.945 39.1128 99.0199L54.1517 83.9448Z" fill="white"/>
<path d="M16.8373 27.838C17.6848 26.7952 19.319 27.4121 19.319 28.7572L19.3191 118.253C19.3191 118.642 19.1647 119.016 18.89 119.291L17.299 120.886C16.6791 121.508 15.6541 121.446 15.1258 120.744C-5.59715 93.2372 -5.02665 54.7401 16.8373 27.838Z" fill="white"/>
<path d="M87.6713 78.4045C86.3661 78.4045 85.7125 76.8227 86.6354 75.8976L101.39 61.1075C101.665 60.8321 102.037 60.6774 102.426 60.6774H147.767C148.466 60.6774 149.07 61.1727 149.194 61.8626C150.099 66.86 150.497 71.9314 150.39 76.994C150.374 77.7821 149.726 78.4045 148.939 78.4045L87.6713 78.4045Z" fill="white"/>
<path d="M121.613 40.836C120.69 41.7611 121.344 43.343 122.649 43.343H140.993C142.066 43.343 142.773 42.2253 142.287 41.266C140.251 37.245 137.831 33.3688 135.029 29.6919C134.499 28.996 133.48 28.9399 132.863 29.559L121.613 40.836Z" fill="white"/>
<path d="M67.4485 95.7389C67.0599 95.7389 66.6873 95.8937 66.4126 96.1691L51.3737 111.244C50.4508 112.169 51.1044 113.751 52.4096 113.751H139.125C139.642 113.751 140.123 113.478 140.381 113.028C143.218 108.101 145.452 102.921 147.085 97.5957C147.37 96.6665 146.667 95.7389 145.698 95.7389H67.4485Z" fill="white"/>
<path d="M29.6234 135.356C28.9292 134.825 28.8704 133.802 29.4881 133.182L31.1508 131.516C31.4256 131.24 31.7982 131.086 32.1868 131.086H122.104C123.441 131.086 124.06 132.715 123.028 133.569C96.0668 155.891 57.2195 156.486 29.6234 135.356Z" fill="white"/>
<path d="M343.788 93.1049C342.486 105.114 338.254 115.753 331.091 125.021C324.059 134.159 314.813 141.273 303.354 146.364C291.894 151.455 278.807 154 264.092 154C247.684 154 233.294 150.802 220.923 144.406C208.552 138.009 198.915 129.133 192.013 117.776C185.112 106.289 181.661 92.9744 181.661 77.8322C181.661 62.69 185.112 49.4406 192.013 38.0839C198.915 26.5967 208.552 17.655 220.923 11.2587C233.294 4.86246 247.684 1.66432 264.092 1.66432C278.807 1.66432 291.894 4.20978 303.354 9.30069C314.813 14.3916 324.059 21.5058 331.091 30.6433C338.254 39.7809 342.486 50.4196 343.788 62.5594H317.809C316.376 54.7273 313.251 48.0047 308.433 42.3916C303.745 36.7785 297.624 32.4709 290.071 29.4685C282.518 26.3357 273.793 24.7692 263.896 24.7692C252.437 24.7692 242.475 26.9231 234.01 31.2308C225.676 35.5385 219.23 41.6736 214.672 49.6364C210.114 57.5991 207.835 66.9977 207.835 77.8322C207.835 88.6667 210.114 98.0653 214.672 106.028C219.23 113.991 225.676 120.126 234.01 124.434C242.475 128.741 252.437 130.895 263.896 130.895C273.793 130.895 282.518 129.394 290.071 126.392C297.624 123.389 303.745 119.082 308.433 113.469C313.251 107.725 316.376 100.937 317.809 93.1049H343.788Z" fill="white"/>
<path d="M380.302 117.58V96.2378H482.657V117.58H380.302ZM448.278 4.40558L518.598 151.259H491.056L427.182 14.1958H437.144L373.27 151.259H345.728L416.048 4.40558H448.278Z" fill="white"/>
<path d="M672.212 135.594L661.664 136.769V4.40558H686.667V151.259H653.85L551.105 18.8951L561.457 17.7203V151.259H536.455V4.40558H570.052L672.212 135.594Z" fill="white"/>
<path d="M795.57 154C778.901 154 764.251 150.802 751.62 144.406C738.988 138.009 729.156 129.133 722.124 117.776C715.092 106.289 711.576 92.9744 711.576 77.8322C711.576 62.69 715.092 49.4406 722.124 38.0839C729.156 26.5967 738.988 17.655 751.62 11.2587C764.251 4.86246 778.901 1.66432 795.57 1.66432C812.238 1.66432 826.888 4.86246 839.52 11.2587C852.152 17.655 861.984 26.5967 869.016 38.0839C876.048 49.4406 879.564 62.69 879.564 77.8322C879.564 92.9744 876.048 106.289 869.016 117.776C861.984 129.133 852.152 138.009 839.52 144.406C826.888 150.802 812.238 154 795.57 154ZM795.57 130.895C807.42 130.895 817.643 128.741 826.237 124.434C834.832 120.126 841.473 113.991 846.161 106.028C850.98 98.0653 853.389 88.6667 853.389 77.8322C853.389 66.9977 850.98 57.5991 846.161 49.6364C841.473 41.6736 834.832 35.5385 826.237 31.2308C817.643 26.9231 807.42 24.7692 795.57 24.7692C783.85 24.7692 773.627 26.9231 764.902 31.2308C756.308 35.5385 749.601 41.6736 744.783 49.6364C740.095 57.5991 737.751 66.9977 737.751 77.8322C737.751 88.6667 740.095 98.0653 744.783 106.028C749.601 113.991 756.308 120.126 764.902 124.434C773.627 128.741 783.85 130.895 795.57 130.895Z" fill="white"/>
<path d="M982.161 4.40558C993.1 4.40558 1002.54 6.36363 1010.48 10.2797C1018.56 14.1958 1024.74 19.6783 1029.04 26.7273C1033.47 33.6457 1035.68 41.6737 1035.68 50.8112C1035.68 59.9487 1033.47 68.042 1029.04 75.0909C1024.74 82.0093 1018.56 87.4266 1010.48 91.3427C1002.54 95.2587 993.1 97.2168 982.161 97.2168H916.334V74.8951H981.185C990.04 74.8951 996.942 72.7413 1001.89 68.4336C1006.97 64.1259 1009.51 58.2517 1009.51 50.8112C1009.51 43.3706 1006.97 37.4965 1001.89 33.1888C996.942 28.8811 990.04 26.7273 981.185 26.7273H918.873L930.398 13.8042V151.259H904.614V4.40558H982.161Z" fill="white"/>
<path d="M1105.26 151.259V81.1608H1131.05V151.259H1105.26ZM1036.11 4.40558H1065.22L1124.99 79.5944H1111.12L1170.9 4.40558H1200L1126.36 97.021L1109.95 97.2168L1036.11 4.40558Z" fill="white"/>
</g>
<defs>
<clipPath id="clip0_259_102">
<rect width="1200" height="153" fill="white"/>
</clipPath>
</defs>
</svg>
